<?xml version="1.0" encoding="UTF-8"?><svg xmlns="http://www.w3.org/2000/svg" xmlns:xlink="http://www.w3.org/1999/xlink" viewBox="0 0 280 60" height="60" width="280"><rect ry="3.36" fill="#000000" rx="3.36" y="24.5" width="6.71" x="0" height="11.00" /><rect ry="3.36" fill="#000000" width="6.71" y="10.5" x="12.420000000000002" height="39.00" rx="3.36" /><rect height="32.00" width="6.71" rx="3.36" y="14" x="24.840000000000003" ry="3.36" fill="#000000" /><rect height="32.00" x="37.27000000000001" width="6.71" y="14" rx="3.36" ry="3.36" fill="#000000" /><rect x="49.69" rx="3.36" ry="3.36" y="14" height="32.00" fill="#000000" width="6.71" /><rect fill="#000000" y="21" width="6.71" rx="3.36" x="62.110000000000014" height="18.00" ry="3.36" /><rect y="10.5" width="6.71" rx="3.36" fill="#000000" x="74.53" ry="3.36" height="39.00" /><rect x="86.96000000000001" y="21" width="6.71" height="18.00" rx="3.36" fill="#000000" ry="3.36" /><rect fill="#000000" ry="3.36" x="99.38" height="18.00" y="21" width="6.71" rx="3.36" /><rect fill="#000000" rx="3.36" ry="3.36" x="111.80000000000001" y="14" width="6.71" height="32.00" /><rect width="6.71" x="124.22" y="14" fill="#000000" height="32.00" rx="3.36" ry="3.36" /><rect fill="#000000" ry="3.36" x="136.64" width="6.71" height="60.00" rx="3.36" y="0" /><rect x="149.07" ry="3.36" fill="#000000" y="3.5" height="53.00" rx="3.36" width="6.71" /><rect rx="3.36" x="161.49" fill="#000000" height="39.00" ry="3.36" y="10.5" width="6.71" /><rect height="11.00" rx="3.36" fill="#000000" width="6.71" x="173.91000000000003" ry="3.36" y="24.5" /><rect y="24.5" width="6.71" x="186.32999999999998" height="11.00" rx="3.36" ry="3.36" fill="#000000" /><rect y="7" ry="3.36" x="198.76" height="46.00" fill="#000000" width="6.71" rx="3.36" /><rect x="211.18" height="25.00" rx="3.36" y="17.5" ry="3.36" fill="#000000" width="6.71" /><rect x="223.60000000000002" y="24.5" height="11.00" ry="3.36" rx="3.36" fill="#000000" width="6.71" /><rect fill="#000000" height="60.00" rx="3.36" x="236.01999999999998" y="0" width="6.71" ry="3.36" /><rect x="248.44" width="6.71" height="53.00" fill="#000000" rx="3.36" y="3.5" ry="3.36" /><rect x="260.87" height="32.00" ry="3.36" y="14" rx="3.36" fill="#000000" width="6.71" /><rect x="273.29" width="6.71" rx="3.36" ry="3.36" fill="#000000" y="24.5" height="11.00" /></svg>